<svg xmlns="http://www.w3.org/2000/svg" width="256" height="256" viewBox="0 0 256 256" role="img" aria-labelledby="title desc">
  <title id="title">Auggie Robot King</title>
  <desc id="desc">Crowned robot emblem with neon gradients for Auggie Credits.</desc>
  <defs>
    <!-- Background gradient -->
    <linearGradient id="bgGrad" x1="0%" y1="0%" x2="100%" y2="100%">
      <stop offset="0%" stop-color="#0A0B1A"/>
      <stop offset="50%" stop-color="#121634"/>
      <stop offset="100%" stop-color="#171F4D"/>
    </linearGradient>
    <!-- Accent gradient (Auggie neon) -->
    <linearGradient id="neon" x1="0%" y1="0%" x2="100%" y2="0%">
      <stop offset="0%" stop-color="#7C4DFF"/>
      <stop offset="50%" stop-color="#4F8CFF"/>
      <stop offset="100%" stop-color="#24E5FF"/>
    </linearGradient>
    <!-- Gold for crown/coin -->
    <linearGradient id="gold" x1="0%" y1="0%" x2="100%" y2="100%">
      <stop offset="0%" stop-color="#FFE59D"/>
      <stop offset="55%" stop-color="#FFC94C"/>
      <stop offset="100%" stop-color="#F1A12B"/>
    </linearGradient>
    <!-- Soft shadow -->
    <filter id="shadow" x="-20%" y="-20%" width="140%" height="140%">
      <feDropShadow dx="0" dy="8" stdDeviation="10" flood-color="#000" flood-opacity="0.35"/>
    </filter>
    <!-- Inner glow for neon lines -->
    <filter id="glow">
      <feGaussianBlur stdDeviation="2" result="blur"/>
      <feMerge>
        <feMergeNode in="blur"/>
        <feMergeNode in="SourceGraphic"/>
      </feMerge>
    </filter>
  </defs>

  <!-- Rounded tile background -->
  <rect x="8" y="8" width="240" height="240" rx="56" fill="url(#bgGrad)"/>

  <!-- Outer ring -->
  <circle cx="128" cy="128" r="96" fill="none" stroke="url(#neon)" stroke-width="6" opacity="0.9"/>

  <!-- Robot head plate -->
  <g filter="url(#shadow)">
    <rect x="64" y="88" width="128" height="96" rx="24" fill="#1E244F" stroke="url(#neon)" stroke-width="3"/>
    <!-- Visor -->
    <rect x="80" y="116" width="96" height="28" rx="14" fill="#0F1336" stroke="#26308A" stroke-width="2"/>
    <!-- Eyes (animated feel without animation) -->
    <g filter="url(#glow)">
      <circle cx="104" cy="130" r="6.5" fill="#24E5FF"/>
      <circle cx="152" cy="130" r="6.5" fill="#24E5FF"/>
      <rect x="116" y="127" width="24" height="6" rx="3" fill="#7C4DFF"/>
    </g>
    <!-- Jaw line -->
    <path d="M84 160 H172" stroke="url(#neon)" stroke-width="3" stroke-linecap="round" opacity="0.8"/>
  </g>

  <!-- Crown (king!) -->
  <g transform="translate(128 72)" filter="url(#shadow)">
    <path d="M-38 0 L-20 -22 L0 0 L20 -22 L38 0 L38 10 L-38 10 Z" fill="url(#gold)" stroke="#B77B19" stroke-width="2"/>
    <!-- Crown jewels -->
    <circle cx="-20" cy="-16" r="3.5" fill="#24E5FF"/>
    <circle cx="0" cy="-18" r="3.5" fill="#7C4DFF"/>
    <circle cx="20" cy="-16" r="3.5" fill="#4F8CFF"/>
  </g>

  <!-- Small coin badge with A inside (Auggie Credits) -->
  <g transform="translate(200 196)" filter="url(#shadow)">
    <circle r="24" fill="url(#gold)"/>
    <path d="M-6 6 L0 -8 L6 6 M-2 0 H2" fill="none" stroke="#7C4DFF" stroke-width="3" stroke-linecap="round"/>
  </g>

  <!-- Subtle highlights -->
  <path d="M28,50c40,-30 160,-30 200,0c-2,8 -10,16 -22,22c-56,26 -100,26 -156,0c-12,-6 -20,-14 -22,-22Z" fill="#FFFFFF" opacity="0.05"/>
</svg>

